<?xml version="1.0" encoding="utf-8"?>
<!-- Generator: Adobe Illustrator 24.2.1, SVG Export Plug-In . SVG Version: 6.00 Build 0)  -->
<svg version="1.1" id="Capa_1" xmlns="http://www.w3.org/2000/svg" xmlns:xlink="http://www.w3.org/1999/xlink" x="0px" y="0px"
	 viewBox="0 0 150 150" style="enable-background:new 0 0 150 150;" xml:space="preserve">
<style type="text/css">
	.st0{fill:#FFFFFF;}
	.st1{fill:#FFD100;}
	.st2{fill:#FB0000;}
</style>
<circle class="st0" cx="75" cy="75" r="75"/>
<g>
	<rect x="73.1" y="32.2" class="st1" width="3.9" height="7.3"/>
	<path class="st1" d="M77,117.8v-7.1c-0.6,0.4-1.1,1-1.2,1.3h-1.6c-0.1-0.2-0.6-0.8-1.2-1.2v7L77,117.8L77,117.8z"/>
	<rect x="106" y="74.2" class="st1" width="7.3" height="3.9"/>
	<rect x="36.6" y="74.2" class="st1" width="7.3" height="3.9"/>
	<polygon class="st2" points="100.6,22.1 49.4,22.1 67.9,30.9 67.9,39.5 71.5,39.5 71.5,30.6 78.6,30.6 78.6,39.5 82.1,39.5 
		82.1,30.9 	"/>
	<polygon points="67.9,39.5 67.9,30.9 49.4,22.1 100.6,22.1 82.1,30.9 82.1,39.5 83.7,39.5 83.7,31.9 104.4,22 104.1,20.5 
		45.9,20.5 45.6,22 66.3,31.9 66.3,39.5 	"/>
	<polygon points="71.5,30.6 71.5,39.5 73.1,39.5 73.1,32.2 77,32.2 77,39.5 78.6,39.5 78.6,30.6 	"/>
	<polygon class="st2" points="49.4,127.9 100.6,127.9 82.1,119.1 82.1,110.5 78.6,110.5 78.6,119.4 71.5,119.4 71.5,110.5 
		67.9,110.5 67.9,119.1 	"/>
	<polygon points="82.1,110.5 82.1,119.1 100.6,127.9 49.4,127.9 67.9,119.1 67.9,110.5 66.3,110.5 66.3,118.1 45.6,128 45.9,129.5 
		104.1,129.5 104.4,128 83.7,118.1 83.7,110.5 	"/>
	<path d="M78.6,119.4v-8.9h-0.8c-0.3,0-0.5,0.1-0.8,0.2v7.1h-3.9v-7c-0.3-0.2-0.6-0.3-0.8-0.3h-0.8v8.9
		C71.5,119.4,78.6,119.4,78.6,119.4z"/>
	<polygon class="st2" points="35.4,69.1 26.6,50.6 26.6,99.9 35.4,83.3 44,83.3 44,79.7 35,79.7 35,72.6 44,72.6 44,69.1 	"/>
	<path d="M44,78.1h-7.3v-3.9H44v-6.6h-7.6l-9.8-20.8L25,47.1V103l1.5,0.4l9.8-18.5H44V78.1L44,78.1z M44,72.6h-9v7.1h9v3.6h-8.6
		l-8.8,16.6V50.6l8.8,18.5H44V72.6L44,72.6z"/>
	<polygon class="st2" points="114.6,83.3 123.4,99.9 123.4,50.6 114.7,69.1 106,69.1 106,72.6 115,72.6 115,79.7 106,79.7 106,83.3 
			"/>
	<path d="M123.5,46.8l-9.8,20.8H106v6.6h7.3v3.9H106v6.8h7.7l9.8,18.5l1.5-0.4V47.1L123.5,46.8z M106,79.7h8.9v-7.1H106v-3.5h8.6
		l8.8-18.5v49.3l-8.8-16.6H106V79.7L106,79.7z"/>
	<path class="st1" d="M104.5,41.1H83.7h-6.6h-3.9h-6.8H45.6v57.4c0,4.1,7,10.4,11.5,10.4h9.3h6c0.9,0,2,0.7,2.7,1.5
		c0.7-0.8,1.7-1.5,2.8-1.5h5.8H93c4.5,0,11.5-6.3,11.5-10.4V41.1L104.5,41.1z M97.9,98.5c0,2.3-2.1,4.6-5,4.6H77.8
		c-1.3,0-2.7,1.6-2.7,2.3c0-0.7-1.6-2.3-2.8-2.3H57.1c-2.3,0-5-2.3-5-4.6V47.1H98L97.9,98.5L97.9,98.5z"/>
	<path d="M106,78.1v-3.9v-6.6V39.5H83.7h-1.6h-3.5H77h-3.9h-1.6h-3.6h-1.6H44v28.1v6.6v3.9v6.8v13.6c0,4.9,7.7,12,13.1,12h9.3H68
		h3.6h0.8c0.2,0,0.5,0.1,0.8,0.3c0.6,0.4,1.1,0.9,1.2,1.2H76c0-0.3,0.5-0.9,1.2-1.3c0.3-0.1,0.5-0.2,0.8-0.2h0.8h3.5h1.6H93
		c5.5,0,13.1-6.9,13.1-12V84.8L106,78.1L106,78.1z M92.9,108.9h-9.3h-5.8c-1.1,0-2.1,0.7-2.8,1.5c-0.7-0.8-1.8-1.5-2.7-1.5h-6H57
		c-4.5,0-11.5-6.3-11.5-10.4V41.1h20.8h6.8H77h6.6h20.8v57.4C104.5,102.6,97.4,108.9,92.9,108.9z"/>
	<polygon points="62.6,55.6 60.7,59.9 64.4,59.9 	"/>
	<path d="M77.5,86.1c-0.4-0.2-0.8-0.3-1.2-0.3c-0.3,0-0.6,0-1.1,0.1v4.5c0.3,0,0.5,0.1,0.8,0.1s0.4,0,0.6,0c0.6,0,1.1-0.2,1.5-0.6
		s0.6-1,0.6-1.6c0-0.5-0.1-0.9-0.3-1.3C78.2,86.6,77.9,86.3,77.5,86.1z"/>
	<path d="M88,85.9V90c0.2,0,0.4,0.1,0.6,0.1s0.5,0,0.8,0c0.7,0,1.3-0.1,1.7-0.3s0.7-0.4,0.8-0.8c0.2-0.4,0.3-0.7,0.3-1.1
		c0-0.6-0.2-1.2-0.7-1.6s-1.2-0.7-2.1-0.7C88.8,85.7,88.4,85.8,88,85.9z"/>
	<path d="M91.1,91c-0.5-0.2-1.1-0.3-1.8-0.3c-0.3,0-0.6,0-0.8,0c-0.2,0-0.4,0-0.5,0v4.4c0.6,0.1,1.2,0.2,1.7,0.2
		c0.9,0,1.6-0.2,2.1-0.6s0.7-1,0.7-1.6c0-0.4-0.1-0.8-0.3-1.2C92,91.5,91.6,91.2,91.1,91z"/>
	<path d="M52,98.5c0,2.3,2.7,4.6,5,4.6h15.2c1.2,0,2.8,1.6,2.8,2.3c0-0.7,1.5-2.3,2.7-2.3h15.1c2.9,0,5-2.3,5-4.6V47.1H52V98.5z
		 M79.6,90.3c-0.6,0.5-1.5,0.8-2.6,0.8c-0.3,0-0.6,0-0.9,0s-0.7-0.1-1-0.2V94c0,0.7,0.1,1.1,0.2,1.2c0.2,0.2,0.5,0.4,1,0.4h0.4v0.3
		H72v-0.3h0.4c0.5,0,0.8-0.1,1-0.4c0.1-0.2,0.2-0.5,0.2-1.2v-6.9c0-0.7-0.1-1.1-0.2-1.2c-0.2-0.2-0.5-0.4-1-0.4H72v-0.3h4.1
		c1,0,1.8,0.1,2.4,0.3c0.6,0.2,1.1,0.5,1.5,1s0.6,1,0.6,1.7C80.6,89,80.3,89.7,79.6,90.3z M93.8,88c0,0.5-0.2,1-0.5,1.4
		s-0.8,0.7-1.4,0.9c0.7,0.2,1.2,0.4,1.6,0.8c0.5,0.5,0.7,1.1,0.7,1.8c0,0.5-0.2,1-0.5,1.5s-0.8,0.8-1.3,1.1s-1.4,0.3-2.6,0.3H85
		v-0.3h0.4c0.4,0,0.7-0.1,0.9-0.4c0.1-0.2,0.2-0.6,0.2-1.2V87c0-0.7-0.1-1.1-0.2-1.2c-0.2-0.2-0.5-0.4-0.9-0.4H85v-0.3h4.4
		c0.8,0,1.5,0.1,2,0.2c0.8,0.2,1.3,0.5,1.7,1C93.6,86.8,93.8,87.4,93.8,88z M81.2,61.5h0.3c0,0.3,0.2,0.7,0.3,0.7
		c0.2,0.3,0.5,0.3,1,0.3H85V62c-1.1-0.3-1.9-1-2.4-1.6c-0.6-0.8-1-1.8-1-2.7c0-1.3,0.5-2.4,1.5-3.4S85.4,53,87,53
		c1.1,0,2.1,0.2,2.9,0.5c0.8,0.5,1.5,1,1.9,1.8c0.5,0.7,0.7,1.5,0.7,2.4c0,1-0.3,1.9-0.8,2.7C91,61.2,90,61.7,89,62.1v0.5h2.1
		c0.5,0,0.8,0,1-0.2s0.3-0.5,0.3-0.8h0.3v2.3h-4.4l0.2-2.3c0.7-0.2,1.3-0.6,1.6-1.3c0.3-0.5,0.5-1.3,0.5-2.4c0-1.3-0.3-2.4-1-3.2
		c-0.8-0.8-1.6-1.1-2.8-1.1c-1,0-1.8,0.3-2.4,1.1c-0.8,0.8-1.1,1.9-1.1,3.2c0,1,0.2,1.8,0.5,2.4c0.5,0.7,1,1.2,1.6,1.3l0.3,2.3h-4.5
		V61.5L81.2,61.5z M74.3,69.5c-1-1.3,6.3,3.1,6.3,7.3c0,2.1-1.9,3.9-4.4,3.9c-2.4,0-4.5-1.8-4.5-3.9C71.7,73.7,76.5,73.5,74.3,69.5z
		 M57.2,63.8c0.4-0.1,0.8-0.2,0.9-0.3c0.3-0.3,0.6-0.8,0.9-1.6l3.9-8.9h0.3l3.8,9c0.3,0.7,0.6,1.2,0.8,1.4c0.3,0.2,0.6,0.3,1,0.4
		v0.3h-4.3v-0.3c0.4,0,0.7-0.1,0.9-0.2c0.2-0.1,0.2-0.3,0.2-0.4c0-0.2-0.1-0.6-0.3-1.1l-0.7-1.5h-4.2l-0.8,1.7
		c-0.2,0.4-0.3,0.7-0.3,0.9s0.1,0.3,0.2,0.4c0.2,0.1,0.5,0.2,1,0.2v0.3h-3.4L57.2,63.8L57.2,63.8z M55.7,85.2h4.7v0.3H60
		c-0.4,0-0.8,0.1-1,0.4c-0.1,0.2-0.2,0.6-0.2,1.2v4.7c0,0.4,0,0.9,0.1,1.4s0.2,1,0.4,1.2c0.2,0.3,0.5,0.5,0.9,0.8
		c0.4,0.2,0.9,0.3,1.4,0.3c0.7,0,1.4-0.1,1.9-0.4c0.6-0.3,1-0.7,1.2-1.2s0.3-1.3,0.3-2.4v-4.3c0-0.7-0.1-1.1-0.2-1.2
		c-0.2-0.2-0.5-0.4-0.9-0.4h-0.4v-0.3h3.9v0.3H67c-0.4,0-0.8,0.2-1,0.5c-0.1,0.2-0.2,0.5-0.2,1.1v4.3c0,1.1-0.1,1.9-0.3,2.5
		c-0.2,0.6-0.7,1.1-1.3,1.5c-0.6,0.4-1.5,0.6-2.6,0.6c-1.2,0-2.1-0.2-2.7-0.6c-0.6-0.4-1.1-0.9-1.3-1.6c-0.2-0.5-0.3-1.3-0.3-2.6
		v-4.2c0-0.7-0.1-1.1-0.3-1.3c-0.2-0.2-0.5-0.3-0.9-0.3h-0.4L55.7,85.2L55.7,85.2z"/>
	<path class="st1" d="M74.7,75c-0.1,0.1-0.2,0.3-0.3,0.5c-0.4,0.7-0.4,1.2-0.3,1.7c0.1,0.3,0.4,0.6,0.7,0.9
		C74.5,77.1,74.6,76,74.7,75z"/>
	<path class="st1" d="M76.3,79.6c0.2,0,0.4,0,0.6,0l-0.3-0.5L76.3,79.6z"/>
	<path class="st1" d="M73.5,77.4c-0.2-0.6-0.1-1.2,0.2-2c-0.4,0.5-0.6,1-0.6,1.5c0,1.4,1.3,2.6,2.9,2.7
		C74.5,78.9,73.7,78.2,73.5,77.4z"/>
	<path class="st1" d="M77.4,78.3c0.4-0.4,0.7-0.9,0.8-1.3c0.1-0.8-0.4-1.5-1-2.4C77.7,75.8,78.1,76.9,77.4,78.3z"/>
	<path class="st1" d="M76.2,80.7c2.4,0,4.4-1.8,4.4-3.9c0-4.2-7.3-8.6-6.3-7.3c2.3,4.1-2.6,4.2-2.6,7.3
		C71.7,78.9,73.8,80.7,76.2,80.7z M74.2,73.7l0.2,0.3c0.1-0.1,0.1-0.2,0.1-0.3h0.8v0.1l0.5,0.2c-0.5,1.4-0.7,3.8,0.5,4.6l-0.2,0.2
		c0.1,0.1,0.3,0.1,0.4,0.2c0,0,0,0,0.1-0.1l-0.4-0.3c1.4-1.8,0.5-3.3-0.5-5c-0.1-0.2-0.3-0.4-0.4-0.6l0.4-0.2
		c-0.3-0.4-0.6-0.7-0.8-1.1l0.6-0.4c0.4,0.5,0.8,1.1,1.3,1.6c1.2,1.4,2.3,2.7,2.1,4.1c-0.1,0.9-0.7,1.7-1.8,2.4
		c1.4-0.4,2.4-1.4,2.4-2.7c0-2.6-3.7-5.7-4.6-5.9l0.2-0.8c1.2,0.4,5.1,3.7,5.1,6.7c0,2-1.8,3.6-4.1,3.6c-2.1,0-4-1.6-4-3.5
		C72.3,75.7,73.3,74.5,74.2,73.7z"/>
	<path d="M76.2,80.4c2.3,0,4.1-1.6,4.1-3.6c0-3-3.9-6.4-5.1-6.7L75,70.8c0.9,0.3,4.6,3.3,4.6,5.9c0,1.3-1,2.4-2.4,2.7
		c-0.1,0.1-0.2,0.1-0.3,0.2l-0.1-0.1c-0.2,0-0.4,0-0.6,0v0.1c-0.1,0-0.2-0.1-0.2-0.1c-1.6-0.1-2.9-1.3-2.9-2.7c0-0.5,0.3-1,0.6-1.5
		c0-0.1,0.1-0.2,0.1-0.3c0.1-0.4,0.4-0.7,0.5-0.9c0.1-0.1,0.1-0.2,0.2-0.2l-0.2-0.3c-0.9,0.8-1.9,2-1.9,3.2
		C72.3,78.8,74.1,80.4,76.2,80.4z"/>
	<path d="M73.8,75.1c0,0.1-0.1,0.2-0.1,0.3c-0.3,0.8-0.4,1.4-0.2,2c0.3,0.8,1.1,1.5,2.5,2.2c0.1,0,0.2,0.1,0.2,0.1v-0.1l0.3-0.5l0,0
		l0,0c-0.2-0.1-0.3-0.1-0.4-0.2l-0.3,0.4c-0.4-0.3-0.7-0.7-0.9-1.2c-0.4-0.3-0.6-0.6-0.7-0.9c-0.2-0.4-0.1-0.9,0.3-1.7
		c0.1-0.2,0.2-0.4,0.3-0.5c0.1-0.4,0.2-0.9,0.3-1.2l0.3,0.1v-0.1h-0.8c0,0.1,0,0.2-0.1,0.3c0,0.1-0.1,0.1-0.2,0.2
		C74.1,74.5,73.9,74.8,73.8,75.1z"/>
	<path d="M76.5,79.1l0.3,0.5l0.1,0.1c0.1-0.1,0.2-0.1,0.3-0.2c1.1-0.8,1.6-1.6,1.8-2.4c0.2-1.5-0.9-2.7-2.1-4.1
		c-0.4-0.5-0.9-1.1-1.3-1.6L75,71.8c0.3,0.4,0.5,0.7,0.8,1.1l0.3-0.2c0.1,0.2,0.2,0.4,0.4,0.6c0.3,0.4,0.5,0.9,0.8,1.3
		c0.6,0.8,1.1,1.6,1,2.4c-0.1,0.4-0.3,0.9-0.8,1.3c-0.1,0.3-0.3,0.5-0.5,0.8l-0.2-0.2C76.6,79,76.6,79,76.5,79.1
		C76.5,79,76.5,79,76.5,79.1L76.5,79.1z"/>
	<path d="M77.4,78.3c0.7-1.4,0.4-2.6-0.2-3.7c-0.2-0.4-0.5-0.9-0.8-1.3c-0.1-0.2-0.2-0.4-0.4-0.6l-0.3,0.2l-0.4,0.2
		c0.1,0.2,0.2,0.4,0.4,0.6c1,1.7,1.9,3.1,0.5,5l0.4,0.3l0.2,0.2C77.1,78.8,77.3,78.6,77.4,78.3z"/>
	<path d="M74.7,75c-0.2,1-0.2,2.2,0.2,3.1c0.2,0.5,0.5,0.9,0.9,1.2l0.3-0.4l0.2-0.2c-1.2-0.8-1-3.2-0.5-4.6l-0.5-0.2L75,73.7
		C74.9,74.1,74.8,74.5,74.7,75z"/>
	<path class="st1" d="M85.5,61.5c-0.7-0.2-1.1-0.6-1.6-1.3c-0.3-0.7-0.5-1.5-0.5-2.4c0-1.3,0.3-2.4,1.1-3.2c0.7-0.8,1.5-1.1,2.4-1.1
		c1.1,0,1.9,0.3,2.8,1.1c0.7,0.8,1,1.9,1,3.2c0,1.1-0.2,1.9-0.5,2.4c-0.3,0.7-1,1.2-1.6,1.3l-0.2,2.3h4.4v-2.3h-0.3
		c0,0.3-0.2,0.7-0.3,0.8s-0.5,0.2-1,0.2H89V62c1-0.3,1.9-0.8,2.6-1.6c0.5-0.8,0.8-1.8,0.8-2.7s-0.2-1.8-0.7-2.4
		c-0.5-0.8-1.1-1.3-1.9-1.8C89,53.1,88,53,86.9,53c-1.6,0-2.9,0.3-3.9,1.3s-1.5,2.1-1.5,3.4c0,1,0.3,1.9,1,2.7
		c0.5,0.7,1.3,1.3,2.4,1.6v0.5h-2.1c-0.5,0-0.8,0-1-0.3c-0.2,0-0.3-0.3-0.3-0.7h-0.3v2.3h4.5L85.5,61.5z"/>
	<path class="st1" d="M60.6,63.8c-0.5,0-0.9-0.1-1-0.2c-0.2-0.1-0.2-0.3-0.2-0.4c0-0.2,0.1-0.5,0.3-0.9l0.8-1.7h4.2l0.7,1.5
		c0.2,0.5,0.3,0.9,0.3,1.1c0,0.2-0.1,0.3-0.2,0.4c-0.1,0.1-0.4,0.2-0.9,0.2v0.3h4.3v-0.3c-0.4,0-0.8-0.1-1-0.4s-0.5-0.7-0.8-1.4
		l-3.8-9H63l-3.9,8.9c-0.3,0.8-0.6,1.3-0.9,1.6c-0.1,0.1-0.4,0.2-0.9,0.3v0.3h3.4L60.6,63.8L60.6,63.8z M62.6,55.6l1.8,4.4h-3.7
		L62.6,55.6z"/>
	<path class="st1" d="M57,85.8c0.2,0.2,0.3,0.6,0.3,1.3v4.2c0,1.3,0.1,2.2,0.3,2.6c0.3,0.7,0.7,1.2,1.3,1.6s1.5,0.6,2.7,0.6
		c1.1,0,2-0.2,2.6-0.6s1.1-0.9,1.3-1.5c0.2-0.6,0.3-1.4,0.3-2.5v-4.3c0-0.6,0-1,0.2-1.1c0.2-0.4,0.6-0.5,1-0.5h0.4v-0.3h-3.9v0.3H64
		c0.4,0,0.7,0.1,0.9,0.4c0.2,0.2,0.2,0.6,0.2,1.2v4.3c0,1.1-0.1,1.9-0.3,2.4c-0.2,0.5-0.6,0.9-1.2,1.2s-1.2,0.4-1.9,0.4
		c-0.6,0-1-0.1-1.4-0.3c-0.4-0.2-0.7-0.4-0.9-0.8c-0.2-0.3-0.4-0.7-0.4-1.2c-0.1-0.5-0.1-1-0.1-1.4v-4.7c0-0.6,0.1-1,0.2-1.2
		c0.2-0.3,0.5-0.4,1-0.4h0.4v-0.3h-4.7v0.3h0.4C56.5,85.4,56.8,85.6,57,85.8z"/>
	<path class="st1" d="M78.5,85.4c-0.6-0.2-1.4-0.3-2.4-0.3H72v0.3h0.4c0.4,0,0.8,0.1,1,0.4c0.1,0.2,0.2,0.6,0.2,1.2v7
		c0,0.6,0,1-0.2,1.2c-0.2,0.3-0.5,0.4-1,0.4H72v0.3h4.8v-0.3h-0.4c-0.4,0-0.8-0.1-1-0.4c-0.2-0.2-0.2-0.6-0.2-1.2v-3.1
		c0.4,0.1,0.7,0.1,1,0.2c0.3,0,0.6,0,0.9,0c1.1,0,1.9-0.3,2.6-0.8c0.6-0.5,0.9-1.3,0.9-2.1c0-0.6-0.2-1.2-0.6-1.7
		C79.6,86,79.1,85.7,78.5,85.4z M78,89.9c-0.4,0.4-0.9,0.6-1.5,0.6c-0.2,0-0.4,0-0.6,0s-0.5-0.1-0.8-0.1v-4.5
		c0.4-0.1,0.8-0.1,1.1-0.1c0.5,0,0.9,0.1,1.2,0.3c0.4,0.2,0.6,0.5,0.8,0.9c0.2,0.4,0.3,0.8,0.3,1.3C78.7,89,78.5,89.5,78,89.9z"/>
	<path class="st1" d="M89.5,85.2H85v0.3h0.4c0.4,0,0.7,0.1,0.9,0.4c0.1,0.2,0.2,0.6,0.2,1.2V94c0,0.6-0.1,1-0.2,1.2
		c-0.2,0.3-0.5,0.4-0.9,0.4H85v0.3h4.8c1.2,0,2-0.1,2.6-0.3c0.6-0.2,1-0.6,1.3-1.1s0.5-1,0.5-1.5c0-0.7-0.2-1.3-0.7-1.8
		c-0.4-0.4-0.9-0.6-1.6-0.8c0.6-0.2,1.1-0.5,1.4-0.9s0.5-0.9,0.5-1.4c0-0.6-0.2-1.2-0.6-1.7s-1-0.8-1.7-1
		C90.9,85.2,90.3,85.2,89.5,85.2z M92.2,91.9c0.2,0.4,0.3,0.8,0.3,1.2c0,0.6-0.2,1.2-0.7,1.6s-1.2,0.6-2.1,0.6
		c-0.6,0-1.2-0.1-1.7-0.2v-4.4c0.1,0,0.3,0,0.5,0s0.5,0,0.8,0c0.7,0,1.3,0.1,1.8,0.3C91.6,91.2,92,91.5,92.2,91.9z M92.2,87.9
		c0,0.4-0.1,0.8-0.3,1.1c-0.2,0.4-0.5,0.6-0.8,0.8s-0.9,0.3-1.7,0.3c-0.3,0-0.6,0-0.8,0S88.1,90,88,90v-4.1c0.4-0.1,0.9-0.2,1.4-0.2
		c0.9,0,1.7,0.2,2.1,0.7C91.9,86.8,92.2,87.3,92.2,87.9z"/>
</g>
</svg>
